<?xml version="1.0" encoding="UTF-8"?><svg id="Layer_1" xmlns="http://www.w3.org/2000/svg" width="400" height="400" viewBox="0 0 400 400"><defs><style>.cls-1{fill:#e9e0d1;stroke-width:0px;}</style></defs><path class="cls-1" d="M198.99,120.48s-6.54-56.39-33.62-86.83C146.2,12.1,111.19-2.69,81.52,3.71,22.45,16.46-10.38,112.08,4.52,182.22c10.73,50.53,45.6,84.83,89.81,128.32,13.66,13.44,48.02,45.34,92.08,79.9,7.19,5.64,11.74,9.1,12.28,9.56.01-.01,53.95-49.21,89.8-85.26,63.96-64.31,95.95-96.47,105.18-128.58,20.48-71.22-11.97-169.6-68.01-183.19-30.33-7.36-64.85,10.78-83.59,29.55-30.91,30.97-43.09,87.97-43.09,87.97Z"/></svg>