<?xml version="1.0" encoding="UTF-8"?><svg id="Layer_6" xmlns="http://www.w3.org/2000/svg" width="243.4mm" height="196.35mm" xmlns:xlink="http://www.w3.org/1999/xlink" viewBox="0 0 689.95 556.59"><defs><style>.cls-1{fill:#000;stroke-width:0px;}.cls-2{filter:url(#drop-shadow-17);}</style><filter id="drop-shadow-17" filterUnits="userSpaceOnUse"><feOffset dx="7" dy="7"/><feGaussianBlur result="blur" stdDeviation="5"/><feFlood flood-color="#1d1d1b" flood-opacity=".5"/><feComposite in2="blur" operator="in"/><feComposite in="SourceGraphic"/></filter></defs><g class="cls-2"><path class="cls-1" d="M352.33,20.54l-3.89,4.19c-.4.43-1.05.55-1.55.25-4.56-2.79-.41-9.84,1.84-13.68.67-1.14-.59-2.43-1.76-1.8-5.82,3.17-14.62,15.1-11.52,23.31.06.16.1.34.09.51-.5,11.48-30.67,12.48-38.93,17.98-6.8,4.16-10.75,21.36-18.83,28.33-.06.05-.93.99-2.01,1.53-5.41,2.7-29.99,1.3-31.31,11.58-.48,3.74,8.69,1.97,11.61,5.86,13.37,17.82,28.62-9.88,44.09-29.14,4.89-6.09,8.93-8.21,12.32-9.23,25.53-7.73,38.27-18.52,42.09-38.6.24-1.27-1.36-2.06-2.25-1.11Z"/><path class="cls-1" d="M472.45,98.61c3.96-10.84-2.95-25.18-6.44-24.84-1.45.14-2.41,2.84-2.7,4.36-1.14,5.96,2.93,7.72,2.23,8.93-.53.92-.85,1.41-4.89.84-1.22-.17-2.83-.69-4.13.79-1.03,1.17,5.57,4.23,5.54,8.37-.03,5.25-4.38,3.94-10.08-1.95-7.83-8.08-13.41-6.12-13.72-4.64-1.32,6.22,8.09,5.7,4.03,10.45-6.62,7.74-10.87-16.16-18.25-18.92-11.76-4.39-36.94,12.37-34.56,26.85.75,4.57,7.13,22.06,25.09,24.86,14.33,2.24,10.67-9.53,20.93-9.51,23.77.04,25.02-6.77,29.01-12.05,4.06-5.37,5.63-7.25,7.93-13.54Z"/><path class="cls-1" d="M386.61,148.18c-2.72-20.26-8.85-23.69-17.89-33.33-15.65-16.7,23.37-28.6,3.45-35.71-55.74-19.89-96.42,21.39-67.79,27.12,11.45,2.29,31.73,10.96,43.23,27.19,7.69,10.86,16.7,21.42,5.9,37.41-12.71,18.82,34.68,4.31,33.1-22.68Z"/><path class="cls-1" d="M210.68,59.93c-3.61,1.14-6.33,4.06-7.44,7.69-8.05,26.31-33.62,32.06-60.45,55.02-52.86,43.45-15.8,55.69,14.75,49.97,7.93-1.48,11.65-10.39,7.73-17.44-5.97-10.71,24.96-10.02,24.66-20.82-.15-5.57,4.12-10.3,9.6-11.33,16.77-3.16,60.58-5.99,52.31-12.03-27.09-19.82-37.21-7.45-49.73-5.51-1.57.24-3.18.24-4.73-.16-22.7-5.82,60.37-32.13,62.04-41.11,2.71-8.28-32.45-9.4-48.75-4.28Z"/><path class="cls-1" d="M508.33,181.34c1.71-3.86-3.17-7.77-4.44-11.6-3.22-9.71-10.35.77-22.33-15.57-5.9-8.05-9.28-17.62-18.57-17.57-4,.02-5.54,2.82-11.55,6.23-7.77,4.42-11.43,3.81-18.56,3.3-18.83-1.32-21.16,3.29-22.7,4.63-6.9,5.98-12.91,16.7-3.39,28.9,4.54,5.81,30.27,8.18,33.22-10.74.77-4.94,14.59-3.82,20.03-1.15,8.43,4.12,12.64,6.18,16.09,10.68,4.43,5.78,14.28,9.4,14.28,9.4,7.28,3.31,11.52,7.25,13.52,7.69,11.23,2.44,1.43-7.5,4.39-14.2Z"/><path class="cls-1" d="M324.66,327.54c-32.36-25.53-1.16-42.81-41.51-48.52-32.61-4.61-62.66-11.71-61.94.34,1.02,16.95-35.07,16.95-11.64,36.12,26.12,21.38,41.53,23.43,28.57,42.17-11.01,15.92,4.18,16.95,18.89,25.09,27.3,15.11,34.91-21.41,39.58-28.82,9.86-17.82,25.47,16.77,34.57-6.22.9-6.37,1.36-13.96-6.51-20.17Z"/><path class="cls-1" d="M243.44,139.47c-37.24-20.81-42.44-6.23-41.48,12.69.6,11.78-23.22-6.62-30.89,24.14,0,.02-10.45,30.11-10.77,39.1-.32,8.99,11.15,19.25,20.62,20.12,18.29,1.68,4.96-20.73,8.11-36.34,1.88-9.31,13.88,34.93,25.51,23.07,6.38-6.5-5.43-28.66,4.69-21.87,22.56,15.14,22.86-2.07,18.48-14.84-3.59-10.44-8.86-15.06-4.95-22.99,1.48-2.99,22.9-16.25,10.67-23.08Z"/><path class="cls-1" d="M326.77,197.81s17.63-21.5,12.4-40.54c-5.23-19.05-27.16-47.79-52.77-40.07-25.61,7.72-30.74,36.98-33.41,55.48-4.57,31.62,1.54,47.33-11.54,61.74-30.91,34.05-7.67,17.97,78.64,39.14,48.79,11.96,35.08,12.01,69.45,21.8,32.98,9.4,70.79-79.88,22.09-101.97-48.69-22.09-84.86,4.44-84.86,4.44Z"/><path class="cls-1" d="M651.87,346.51c-.73-4.53,1.7-4.11,6.28-2.24.19.08.41.15.61.19,14.46,3.2-6.19-10.89-14.75-14.31-.4-.16-.77-.38-1.1-.66-18.75-16.56-29.78-31.04-50.08-46.4-.45-.34-.84-.79-1.08-1.31-3.52-7.77,1.02-14.45-4.16-21.96-1.13-2.31-6.6-6.84-3.29-8.77,7.35-1.04,11.6,17.55,21.41,16.58.42-.04.82-.21,1.19-.42,19-10.88,39.23,7.78,51.75-14.49.05-.08.1-.17.15-.24,31.91-44.92,5.01-99.4-28.23-38.96-.42.77-1.11,1.37-1.93,1.67-26.5,9.64-28.57,2.25-46.19,25.57-.56.75-1.4,1.26-2.33,1.41-17.32,2.78-8.9-14.9-9.6-25.67,0-.13-.02-.26-.04-.39-2.07-14.61-39.78-65.67-53.17-74.27-.48-.31-.85-.74-1.14-1.23-10.8-18.19-73.24-15.58-23-3.97,1.19.28,2.03,1.45,2.18,2.67.25,2.07-1.97,2.27-5.93,2.1-.21,0-.42,0-.63.02-15.05,1.88,10.67,8.49,19.34,8.55,10.56-.6,16.75,28.28,30.42,43.33,3.77,4.15,9.76,14.43,10.83,24.2.15,1.33.71,6.93-1.91,8.07-20.31,8.81-69.29-35.08-86.35-35.82-11.16-.48-29.09,2.62-18.03,15.64,20.16,23.73,18.51,46.58,8.13,60.25-22.41,29.53,15.62,31.9,33.61,64.87,8.77,16.07,12.68,23.79,13.73,53.47,1.24,35.26-2,60.9-11.95,103.54-.18.76-.59,1.46-1.2,1.95-6.1,4.92-10.74,12.14-3.77,17.47,1.25.96,1.8,2.58,1.29,4.07-3.24,9.43-12.7,26.36,3.6,32.51.18.07.37.12.55.16,15.27,3.4,11.01,1.41,8.94-10.24-1.7-9.57,2.86-18.47,3.5-19.59,5.41-9.45,4.11-15.06,4.79-17.68.03-.13,1.91-16.72,1.93-16.86,8.11-57.74,34.2-99.48,32.7-152.88,0-.31-.16-15.87-.14-16.18.73-16.2,15.75-18.93,33.28-25.07,1.56-.55,3.29.03,4.2,1.41,7.37,11.29,31.24,31.11,48.52,41.35,9.27,5.21,10.59,15.24,15.25,22.03,4.36,8.88,24.54,10.34,25.1,8.51.46-1.49-12.32-4.62-13.27-11.97Z"/><path class="cls-1" d="M454.87,323.07c-1.15-7.31-12.36-14.53-20.04-15.41-9.42-1.08-14.37,1.27-22.7,5.82-8.35,4.56-18.77.66-32.91-2.07-18.23-3.51-39.13-20.17-45.02-14.03-13.09,13.64,28.96,43.79,16.14,61.75-12.83,17.96-6.38,33.14-3.46,52.38,1.34,8.85,2.35,11.71,4.51,16.51.29.64,1.19,3.58.9,7.35-.25,3.16-.73,6-.73,12.19,0,1.12.47,4.23.44,6.9-.08,7.66.85,27.39,1.92,33.68.22,1.3,1.05,2.46,2.27,2.94,6.94,2.66,8.86-23.68,11.75-36.58.19-.85.66-1.62,1.33-2.18,11.08-9.2,1.89-11.87-1.62-25.2-.05-.2-.09-.4-.11-.61-.57-5.45-1.77-11.73-1.99-17.4-.46-11.6,6.18-12.65,9.58-20.9,6.86-16.65,11.03-32.79,47.46-32.5,14.16.11,34.83-16.39,32.27-32.64Z"/><path class="cls-1" d="M103.83,326.93c-4.08,11.85,24.66,44.34,45.77,41.32,6.12-1.54,5.48-22.33,14.13-14.51,43.4,39.23,45.2,32.76,44.79,26.89-1.55-22.61,15.45-14.36,13.5-28.39-4.12-29.72-25.72-2.61-52.72-43.33-11.13-16.78-37.31-32.12-46.89-34.12-24.13-5.06.1,15.13-18.58,52.14Z"/><path class="cls-1" d="M193.04,247.18c-48.75-8.59-43.97-15.23-43.48-47.31.14-9.36-5.9-17.75-14.88-20.39-11.69-3.45-26.42-4.98-32.59-15.67-.35-.61-.65-1.26-.92-1.92-7.77-19.59,15.13-19.91,24.12-39.63.39-.86.71-1.77.96-2.68,5.82-21.03-2.6-30.3,2.86-48.09.19-.62.41-2.11,1.35-3.53.89-1.34,2.42-1.94,2.67-2.07,2.7-1.43,16.38-9.26,10.55-8.47-.75.1-1.65.43-1.79.47-2.77.71-3.1.57-2.73.15.61-.7,1.86-2.21,3.66-2.8,28.99-9.47-8.13-11.59-19.45,5.42-4.5,7.83-6.55,15.61-6.46,22.42.14,10.15.39,24.24-2.88,29.8-7.21,12.28-15.99,17.89-30.29,21.39-5.49,1.35-9.95,5.02-13.94,9.52-2.16-2.82-3.19-5.65-1.23-7.7,5.56-5.82,6.35-30.95,0-44.18-6.35-13.23-19.58-34.92-42.32-29.89C3.5,67.02,3.5,98.5,10.11,119.13c6.61,20.63,38.36,21.16,41.53,25.66,2.09,2.96,3.26,11.53,3.82,17.05-.82.89-1.66,1.73-2.51,2.5-.8.84-1.64,1.67-2.67,2.62-7.84,6.93-24.65,33.2-29.68,43.93-.36.78-5.65,10.27-8.32,24.56-1.63,8.74,4.48,46.14,3.11,55.58-.05.32-.07.63-.03.94.46,3.8,3.21,8.78,4.62-.89.03-.22.12-.46.15-.68,2.8-17.41,3.2-3.13,6.08-10.25,1.39-3.44,1.17-9.92-2.46-15.35-11.25-16.86,20.41-46.63,32.85-70.23,2.73,5.69,5.03,13.61,5.44,25.54.01.4.04.81.08,1.2,7.46,77.5-40.47,55.06,38.68,162.21,5.75,7.79,6.22,8.23,8.14,10.46,4.47,7.95,11.09,16.82,11.95,14.88,4.01-9.02-2.51-17.53-4.14-24.88-1.75-7.85,2.73-18.8-9-18.15-6.97.64-5.79-4.26-6.5-9.6-.49-2.98-1.73-2.33-4.52-5.48-3.15-3.56-7.15-11.59-9.05-15.54-15.22-31.58,15.68-30.93,5.91-60.53-1.53-4.65-1.28-9.71.55-14.25,18.16-45.1,64.53,52.97,101.75,8.98.92-1.09,1.69-2.31,2.36-3.57,2.8-5.34,10.4-15.48-5.19-18.68Z"/></g></svg>