<?xml version="1.0" encoding="UTF-8"?><svg id="Layer_6" xmlns="http://www.w3.org/2000/svg" width="243.4mm" height="196.35mm" viewBox="0 0 689.95 556.59"><defs><style>.cls-1{fill:#d44715;stroke-width:0px;}</style></defs><path class="cls-1" d="M298.73,68.77c-5.69,3.37-9.17,10.42-13.19,15.46-3.91,4.9-8.67,9.69-14.94,11.29-7.3,1.87-14.77-.9-22.05.02,2.69.54,5.98,1.02,7.53,3.08,13.37,17.82,28.62-9.88,44.09-29.14.62-.77,1.22-1.47,1.81-2.12-1.13.35-2.22.81-3.24,1.41Z"/><path class="cls-1" d="M435.43,119.7c-7.02-1.94-13.09,3.58-20.31,3.23-5.18-.25-10.54-2.08-14.2-5.86-7.76-8.03-3.72-20.12,3.77-26.64,4.55-3.96,9.87-6.78,15.41-9.12-12.64-.31-32.75,14.54-30.61,27.55.75,4.57,7.13,22.06,25.09,24.86,14.33,2.24,10.67-9.53,20.93-9.51,11.47.02,17.69-1.56,21.51-3.79-6.92,1.79-14.53,1.24-21.59-.71Z"/><path class="cls-1" d="M353.52,170.86c-.78,1.15-1.33,2.18-1.68,3.08,3.09-1.77,6.08-3.71,8.63-6.13,5.01-4.74,5.93-10.42,5.88-17.09-.12-15.7-8.23-26.48-20.79-35.19-6.23-4.32-12.98-7.66-20.16-10.06-4.99-1.67-10.26-3.09-14.5-6.34-5.37-4.12-6.73-9.59-5.76-15.04-12.24,8.44-14.5,19.41-.74,22.16,11.45,2.29,31.73,10.96,43.23,27.19,7.69,10.86,16.7,21.42,5.9,37.41Z"/><path class="cls-1" d="M251.84,110.98c-7-5.12-12.85-8.08-17.92-9.64.25,1.17.23,2.42-.17,3.76-1.38,4.51-6.31,6.51-10.42,7.74-8.51,2.54-17.88,2.66-25.53,4.27-4.21.88-8.93,1.92-11.88,5.31-2.72,3.13-3.73,7.18-6.99,9.95-4.99,4.24-11.65,5.32-17.65,7.43-6.7,2.35-8.77,6.68-9.98,13.34-.94,5.18-2.89,9.75-8.32,11.51-10.73,3.47-21.21-1.23-26.37-9.84-3.96,17.2,20.02,21.71,40.94,17.79,7.93-1.48,11.65-10.39,7.73-17.44-5.97-10.71,24.96-10.02,24.66-20.82-.15-5.57,4.12-10.3,9.6-11.33,16.77-3.16,60.58-5.99,52.31-12.03Z"/><path class="cls-1" d="M410.41,153.99c5.19-2.38,11.03-1.6,16.5-1,6.71.74,12.83-.13,19.01-2.92,5.76-2.6,10.88-6.61,16.93-8.57,2.98-.97,5.93-1.33,8.84-1.15-2.34-2.27-5.07-3.75-8.71-3.73-4,.02-5.54,2.82-11.55,6.23-7.77,4.42-11.43,3.81-18.56,3.3-18.83-1.32-21.16,3.29-22.7,4.63-2.95,2.55-5.73,5.98-7.21,10.01,1.83-2.88,4.28-5.34,7.44-6.79Z"/><path class="cls-1" d="M324.66,327.54c-32.36-25.53-1.16-42.81-41.51-48.52-32.61-4.61-62.66-11.71-61.94.34.99,16.49-33.12,16.94-13.41,34.6-.4-.65-.77-1.33-1.05-2.08-1.08-2.91-.58-5.68,1.09-8.25,1.88-2.87,4.9-4.84,7.69-6.74,3.51-2.39,5.92-4.73,8.73-7.87,9.98-11.12,22.78-9.11,36.08-6.43,12.84,2.59,28.36,5.51,31.93,20.03,2.47,10.04,9.19,15.77,16.39,22.67,4.15,3.97,10.18,8.38,11.8,14.18,2.33,8.35-4.67,10.8-11.83,10.33,8.02,3.54,16.64,12.79,22.53-2.09.9-6.37,1.36-13.96-6.51-20.17Z"/><path class="cls-1" d="M243.44,139.47c-.86-.48-1.68-.92-2.5-1.36,3.59,3.87,3.82,8.65-1.44,12.17-3.91,2.62-10.34,2.61-11.64,7.74-1.15,4.53-1.67,6.48.53,13.99,2,5.11,4.84,10.4,4.7,15.96-.09,3.55-1.95,6.71-5.36,7.93-1.87.67-3.92.52-5.84.18-1.61-.29-4.86-1.93-6.55-1.47-2.25.62-3.33,4.45-4.69,6.15-1.07,1.33-2.25,2.47-3.85,3.13-4.26,1.75-8.21-.61-10.79-3.97-2.76-3.59-4.29-10.74-9.9-7.42-2.6,1.54-4.52,5.48-5.17,12.65-.37,9.16,3.44,13.83.21,20.11-2.45,4.77-8.21,6.28-12.99,4.33,3.82,3.23,8.49,5.53,12.75,5.92,18.29,1.68,4.96-20.73,8.11-36.34,1.88-9.31,13.88,34.93,25.51,23.07,6.38-6.5-5.43-28.66,4.69-21.87,22.56,15.14,22.86-2.07,18.48-14.84-3.59-10.44-8.86-15.06-4.95-22.99,1.48-2.99,22.9-16.25,10.67-23.08Z"/><path class="cls-1" d="M254.03,191.6c3.87-22.43,3.95-28.07,8.24-37.74,6.41-14.43,13.77-18.87,15.72-19.96,3.62-2.03,7.76-3.35,12.39-3.82,16.27-1.65,29.28,9.73,35.51,23.86,4.94,11.22,9.24,25.95,4.97,38.03,4.85-7.69,11.85-21.76,8.3-34.7-5.23-19.05-27.16-47.79-52.77-40.07-25.61,7.72-30.74,36.98-33.41,55.48-2.46,17.05-1.83,29.47-2.76,39.56.9-4.55,2.28-11.74,3.81-20.63Z"/><path class="cls-1" d="M411.63,193.37c-1.15-.52-2.29-1.01-3.42-1.47-3.43-1.21-6.86-2.41-10.29-3.62-28.2-8.21-50.83-.92-62.5,4.63,21.87-3.87,45.37-5.23,66.27,2.67,7.74,2.93,15.07,7.62,18.73,15.31,4.16,8.75,4.06,19.35,2.56,28.71-3.25,20.3-18.54,45.78-42.53,39.52-5.86-1.53-9.97-2.4-14.57-4.59-16.6-7.93-36.55-10.05-76.45-14.29-15.01-1.59-34.59-3.04-57.69-3.06,9.24,4.32,38.09,4.03,88.36,16.35,48.79,11.96,35.08,12.01,69.45,21.8,32.98,9.4,70.79-79.88,22.09-101.97Z"/><path class="cls-1" d="M484.83,330.5c8.77,16.07,12.68,23.79,13.73,53.47.62,17.63.12,32.85-1.78,49,1.54-6.45,2.95-12.93,4.25-19.44,5.98-29.93,14.65-63.63-.88-92.15-6.24-11.46-15.01-21.43-20.12-33.52-2.47-5.84-4.27-12.13-4.25-18.52.02-6.06,2.29-11.64,3.58-17.48,1.81-8.19-.74-14.43-4.48-21.64-2.32-4.48-4.59-9.35-4.54-14.5.07-7.37,5.94-10.44,12.65-9.94,7,.53,13.75,3.28,20.36,5.61-17.01-10-33.66-21.28-42.24-21.65-11.16-.48-29.09,2.62-18.03,15.64,20.16,23.73,18.51,46.58,8.13,60.25-22.41,29.53,15.62,31.9,33.61,64.87Z"/><path class="cls-1" d="M346.52,321.5c5.02-6.91,15.93-.53,21.45,2.31,5.94,3.05,11.51,5.4,18.34,5.91,8.82.65,17.51-1.45,25.9-3.96,11.19-3.35,26.1-11.33,36.25-1.17,3.57,3.57,4.25,7.92,3.46,12.33,2.46-4.36,3.7-9.11,2.95-13.85-1.15-7.31-12.36-14.53-20.04-15.41-9.42-1.08-14.37,1.27-22.7,5.82-8.35,4.56-18.77.66-32.91-2.07-18.23-3.51-39.13-20.17-45.02-14.03-7.63,7.96,3.49,21.52,11.54,35.01-.94-3.62-1.55-7.68.78-10.89Z"/><path class="cls-1" d="M222.02,352.25c-4.12-29.72-25.72-2.61-52.72-43.33-11.13-16.78-37.31-32.12-46.89-34.12-15.43-3.24-11.08,3.86-10.83,19.07,1.97-2.67,4.57-4.74,8.03-5.58,11.74-2.83,24.4,10.76,31.9,17.99,10.49,10.12,16.99,23.03,29.93,30.61,6.12,3.59,12.44,5.1,19.17,6.97,5.29,1.46,9.55,4.8,9.05,10.78-.56,6.68-6.59,10.44-5,17.48.81,3.58,2.23,6.98,3.87,10.28.05-.56.03-1.17-.01-1.77-1.55-22.61,15.45-14.36,13.5-28.39Z"/><path class="cls-1" d="M193.04,247.18c-48.75-8.59-43.97-15.23-43.48-47.31.14-9.36-5.9-17.75-14.88-20.39-11.69-3.45-26.42-4.98-32.59-15.67-.35-.61-.65-1.26-.92-1.92-.94-2.38-1.43-4.47-1.54-6.35-.1.24-.21.47-.3.71-3.42,8.95,1.89,15.75,9,20.6,6.11,4.17,13.07,7.06,18.11,12.67,5.32,5.92,7.95,13.15,8.79,20.97,1.05,9.72,1.81,18.59,7.38,26.94,2.68,4.01,5.97,8,10.38,10.16,3.2,1.57,6.7,2.46,9.8,4.24,5.59,3.22,11.82,11.84,4.32,16.79-6.43,4.25-15.37-.99-21.18-3.93-5.48-2.78-11.25-5.17-17.13-6.97-.23-.07-.48-.15-.73-.22,20.66,14.37,45.82,37.9,67.79,11.93.92-1.09,1.69-2.31,2.36-3.57,2.8-5.34,10.4-15.48-5.19-18.68Z"/></svg>