<?xml version="1.0" encoding="UTF-8"?><svg id="Layer_1" xmlns="http://www.w3.org/2000/svg" width="400" height="400" viewBox="0 0 400 400"><defs><style>.cls-1{fill:#e9e0d1;stroke-width:0px;}</style></defs><path class="cls-1" d="M197.94,384.87c1.22-6.82,2.91-13.52,5-20.13,4.74-14.92,11.07-29.32,14.76-44.55-6.67.1-13.28.24-19.92-.82-1.67-.27-2.41-2.24-2.1-3.69,3.14-14.51,10.32-27.73,15.23-41.65.79-2.25,2.58-6.01,2.07-8.45-.39-1.88-2.17-1.64-4.37-1.89-4.61-.54-9.76-.08-14.2-1.54-1.47-.48-2.64-2.1-2.1-3.69,6.52-19.14,17.02-36.59,24.04-55.51-5.34-2.26-11-3.77-16.55-5.42-1.52-.45-2.57-2.12-2.1-3.69,1.69-5.59,3.18-11.24,4.72-16.88,1.36-4.99,3.41-10.11,3.8-15.3.51-6.71-5.11-10.75-9.1-15.39-4.49-5.23-6.91-10.92-5.42-17.84,1.53-7.14,5.09-13.14,5.21-20.58-3.58-18.41-12.47-52.74-31.55-74.19C146.2,12.1,111.19-2.69,81.52,3.71,22.45,16.46-10.38,112.08,4.52,182.22c10.73,50.53,45.6,84.83,89.81,128.32,13.66,13.44,48.02,45.34,92.08,79.9,3.95,3.1,7.1,5.54,9.23,7.18,1.1-4.18,1.57-8.65,2.3-12.76Z"/></svg>