<?xml version="1.0" encoding="UTF-8"?><svg id="Lag_1" xmlns="http://www.w3.org/2000/svg" width="787.48" height="80.34" viewBox="0 0 787.48 80.34"><defs><style>.cls-1{fill:#eae1d1;stroke-width:0px;}</style></defs><path class="cls-1" d="M.16,21.33c29.28.1,58.55.21,88.74.32-.05,13.14-.1,27.67-.15,43.36-4.77.97-10.09,2.06-16.46,3.35.05-12.76.09-24.07.13-36.16-6.29-.02-11.83-.04-18.45-.07-.04,11.62-.08,22.87-.12,34.83-4.98-.02-8.9-.03-14.39-.05-.99-10.85-2.03-22.26-3.16-34.62-5.11-.02-10.7-.04-17.21-.06-.04,11.16-.08,22.67-.13,35.47-6.85-.02-12.9-.05-18.96-.07.05-15.43.1-30.86.16-46.3Z"/><path class="cls-1" d="M720.01,61.17c.01-2.94.02-5.83.04-10.16,13.98.05,27.88.33,41.77-.03,3.01-.08,5.95-2.45,8.93-3.76-3.02-1.26-6.01-3.51-9.07-3.61-14.29-.43-28.6-.27-42.86-.32-.55-1.63-1.09-2.53-1.14-3.45q-1.15-25.8,25.21-25.74c14.67.04,29.33.1,44.59.16-.01,3.9-.03,7.09-.04,11.59-14.38-.05-28.6-.32-42.8,0-3.48.08-6.92,2.08-10.37,3.2,3.61,1.34,7.18,3.69,10.83,3.83,13.91.5,27.84.28,42.35.33-.04,10.1-.07,18.73-.1,28.21-22.23-.09-44.55-.17-67.34-.25Z"/><path class="cls-1" d="M453.28,17.32c22.95.08,45.13.16,68.02.24-.05,14.85-.1,29.45-.16,45.4-16.77-.06-33.98-.12-52.07-.19-.39,6.48-.71,11.68-1.07,17.57-4.8-.02-9.43-.03-14.95-.05.08-20.41.15-41.25.23-62.97ZM469.35,26.89c-.37,3.04-.75,4.66-.74,6.27.11,24.5-2.83,19.56,19.43,19.99,18.5.36,20.78-2.44,17.4-20.84-.37-2.03-3.53-4.96-5.54-5.07-9.84-.56-19.72-.31-30.55-.35Z"/><path class="cls-1" d="M185.14,47.23c-16.02-.06-30.69-.35-45.34.04-2.82.07-5.56,2.81-8.34,4.32,2.67,1.59,5.3,4.47,8.03,4.56,14.66.51,29.34.32,44.78.37.19,3.16.34,5.69.54,8.94-23.52-.08-46.61-.17-70.37-.25.05-14.68.1-29.27.16-44.61,22.45.08,44.8.16,67.67.24.93,8.61,1.85,16.97,2.87,26.39ZM164.22,38.76c1.57-6.23,1.61-10.21-5.76-10.05-7.17.16-14.38-.36-21.5.26-1.96.17-3.65,3.34-5.46,5.14,1.71,1.52,3.35,4.25,5.13,4.34,9.11.49,18.27.28,27.59.31Z"/><path class="cls-1" d="M614.78,16.36c-.05,13.96.23,27.3-.46,40.6-.12,2.28-4.31,6.18-6.69,6.23-19.74.44-39.51.15-61.13.07.06-15.68.11-31.01.17-47.14,21.38.07,44.03.16,68.11.24ZM597.65,27.33c-3.22-.01-5.88-.02-8.55-.03-7.15-.02-14.32-.32-21.44.11-2.11.13-5.31,1.93-5.93,3.68-4.86,13.63.25,20.36,15.03,20.42q23.08.11,20.89-24.18Z"/><path class="cls-1" d="M359.1,63.94c.05-13.48-.46-26.54.59-39.48.22-2.74,6.07-7.07,9.45-7.18,19.06-.63,38.16-.2,57.95-.13,1,15.83,1.96,30.99,2.98,47.04-23.79-.08-46.5-.16-70.97-.25ZM376.4,52.81c10.15.04,19.02-.13,27.87.17,5.36.18,8.98-1.18,8.15-7.1-.85-6,4.04-15.15-5.83-16.78-9.8-1.61-20.09-.42-30.1-.45-.03,8.95-.06,16.19-.09,24.16Z"/><path class="cls-1" d="M258.19,65.9c-17-.06-33.6-.12-50.79-.18.07-20.9.15-41.49.22-62.76,5.31.02,10.19.04,15.55.06.4,4.94.76,9.48,1.21,15.05,11.44.04,22.56.08,34.16.12-.02,4.26-.03,7.46-.04,11.81-11.21-.04-22.31-.08-34.11-.12-.03,8.32-.06,15.52-.09,23.95,11.07.04,22.17.08,33.93.12-.02,4.61-.03,8.02-.04,11.95Z"/><path class="cls-1" d="M298.82,63.61c-16.59,1.73-17.12,1.29-17.11-12.86.01-10.34.07-20.68.11-31.66,17.95.06,35.19.13,53.18.19-.02,6.68-.05,13.17-.07,20.34-5.18-.02-10.1-.04-15.57-.06-.38-3.3-.76-6.52-1.21-10.46-6.16-.02-12.09-.04-19.21-.07-.04,11.54-.08,22.8-.12,34.58Z"/><path class="cls-1" d="M654.53,61.48c-4.22-.02-8.94-.03-15.25-.05.07-20.13.14-39.99.22-60.67,3.67.01,8.54.03,15.25.05-.08,19.94-.15,39.8-.22,60.67Z"/><path class="cls-1" d="M693.78,61.43c-5.22-.02-9.83-.03-15-.05.05-14.95.1-29.42.16-44.45,5.1.02,9.7.03,15,.05-.06,14.53-.11,29.02-.16,44.45Z"/><path class="cls-1" d="M693.93.44q-.2,7.87-13.75,6.89-1.65-7.86,13.75-6.89Z"/></svg>