<?xml version="1.0" encoding="utf-8"?>
<!-- Generator: Adobe Illustrator 28.0.0, SVG Export Plug-In . SVG Version: 6.00 Build 0)  -->
<svg version="1.1" id="Layer_1" xmlns="http://www.w3.org/2000/svg" xmlns:xlink="http://www.w3.org/1999/xlink" x="0px" y="0px"
	 viewBox="0 0 595.28 841.89" style="enable-background:new 0 0 595.28 841.89;" xml:space="preserve">
<style type="text/css">
	.st0{opacity:0.73;}
	.st1{fill:#FFFFFF;}
	.st2{fill:#E1E1E1;}
</style>
<g class="st0">
	<path class="st1" d="M358.35,620.23c7.63,0,14.58-0.2,21.51,0.17c1.41,0.08,3.65,2.13,3.91,3.56c2.42,12.95,0.82,14.92-12.2,14.71
		c-15.67-0.25-13.59,3.23-13.73-14.02C357.83,623.51,358.09,622.37,358.35,620.23z"/>
	<path class="st1" d="M292.98,638.71c0-5.61,0-10.71,0-17.01c7.05,0,14.29-0.87,21.19,0.24c6.95,1.12,3.54,7.58,4.15,11.8
		c0.6,4.16-1.94,5.13-5.72,5.02C306.37,638.57,300.13,638.71,292.98,638.71z"/>
</g>
<g>
	<path class="st2" d="M32.31,465.33c20.23,0.07,40.46,0.14,61.31,0.22c-0.03,9.08-0.07,19.12-0.11,29.96
		c-3.3,0.67-6.97,1.42-11.37,2.32c0.03-8.82,0.06-16.63,0.09-24.98c-4.35-0.02-8.17-0.03-12.75-0.05
		c-0.03,8.03-0.06,15.8-0.09,24.06c-3.44-0.01-6.15-0.02-9.94-0.04c-0.68-7.5-1.4-15.38-2.18-23.92c-3.53-0.01-7.39-0.03-11.89-0.04
		c-0.03,7.71-0.06,15.67-0.09,24.51c-4.73-0.02-8.92-0.03-13.1-0.05C32.24,486.67,32.27,476,32.31,465.33z"/>
	<path class="st2" d="M529.68,492.86c0.01-2.03,0.01-4.03,0.02-7.02c9.66,0.03,19.26,0.23,28.86-0.02c2.08-0.05,4.11-1.69,6.17-2.6
		c-2.09-0.87-4.15-2.43-6.26-2.49c-9.87-0.3-19.76-0.19-29.61-0.22c-0.38-1.13-0.76-1.75-0.78-2.38
		c-0.79-17.82-0.79-17.83,17.42-17.78c10.13,0.03,20.27,0.07,30.81,0.11c-0.01,2.7-0.02,4.9-0.03,8.01
		c-9.94-0.04-19.76-0.22-29.57,0c-2.41,0.05-4.78,1.44-7.17,2.21c2.49,0.92,4.96,2.55,7.48,2.64c9.61,0.35,19.24,0.19,29.26,0.23
		c-0.02,6.98-0.05,12.94-0.07,19.49C560.85,492.97,545.42,492.91,529.68,492.86z"/>
	<path class="st2" d="M345.38,462.57c15.86,0.06,31.18,0.11,47,0.17c-0.04,10.26-0.07,20.34-0.11,31.37
		c-11.59-0.04-23.47-0.08-35.97-0.13c-0.27,4.48-0.49,8.07-0.74,12.14c-3.32-0.01-6.51-0.02-10.33-0.04
		C345.28,491.97,345.33,477.57,345.38,462.57z M356.49,469.18c-0.26,2.1-0.52,3.22-0.51,4.33c0.08,16.93-1.95,13.51,13.43,13.81
		c12.78,0.25,14.36-1.68,12.03-14.4c-0.26-1.4-2.44-3.43-3.83-3.51C370.8,469.03,363.97,469.2,356.49,469.18z"/>
	<path class="st2" d="M160.13,483.23c-11.07-0.04-21.21-0.24-31.33,0.03c-1.95,0.05-3.84,1.94-5.76,2.98
		c1.85,1.1,3.66,3.09,5.55,3.15c10.13,0.35,20.27,0.22,30.94,0.26c0.13,2.18,0.24,3.93,0.37,6.17c-16.25-0.06-32.2-0.11-48.62-0.17
		c0.04-10.14,0.07-20.22,0.11-30.82c15.51,0.06,30.95,0.11,46.75,0.17C158.78,470.95,159.41,476.72,160.13,483.23z M145.67,477.38
		c1.08-4.3,1.12-7.05-3.98-6.94c-4.95,0.11-9.94-0.25-14.85,0.18c-1.35,0.12-2.52,2.31-3.77,3.55c1.18,1.05,2.31,2.94,3.54,3
		C132.9,477.5,139.23,477.36,145.67,477.38z"/>
	<path class="st2" d="M456.97,461.9c-0.03,9.65,0.16,18.86-0.32,28.05c-0.08,1.57-2.98,4.27-4.63,4.31
		c-13.64,0.3-27.3,0.1-42.24,0.05c0.04-10.83,0.08-21.43,0.12-32.57C424.69,461.79,440.34,461.84,456.97,461.9z M445.14,469.48
		c-2.23-0.01-4.07-0.02-5.9-0.02c-4.94-0.01-9.89-0.22-14.81,0.08c-1.46,0.09-3.67,1.33-4.1,2.54c-3.36,9.41,0.18,14.06,10.38,14.11
		C446.65,486.26,446.65,486.26,445.14,469.48z"/>
	<path class="st2" d="M280.32,494.77c0.03-9.31-0.32-18.34,0.41-27.28c0.15-1.89,4.2-4.89,6.53-4.96
		c13.17-0.44,26.37-0.14,40.04-0.09c0.69,10.94,1.36,21.41,2.06,32.5C312.91,494.89,297.22,494.83,280.32,494.77z M292.27,487.09
		c7.01,0.02,13.14-0.09,19.26,0.12c3.7,0.12,6.2-0.82,5.63-4.9c-0.58-4.15,2.79-10.47-4.03-11.59c-6.77-1.12-13.88-0.29-20.8-0.31
		C292.31,476.58,292.29,481.58,292.27,487.09z"/>
	<path class="st2" d="M210.59,496.13c-11.75-0.04-23.22-0.08-35.09-0.12c0.05-14.44,0.1-28.67,0.15-43.36
		c3.67,0.01,7.04,0.03,10.74,0.04c0.27,3.41,0.53,6.55,0.83,10.4c7.9,0.03,15.59,0.06,23.6,0.08c-0.01,2.94-0.02,5.15-0.03,8.16
		c-7.74-0.03-15.41-0.05-23.57-0.08c-0.02,5.75-0.04,10.72-0.06,16.55c7.65,0.03,15.32,0.05,23.44,0.08
		C210.61,491.06,210.6,493.41,210.59,496.13z"/>
	<path class="st2" d="M238.66,494.55c-11.46,1.19-11.83,0.89-11.82-8.88c0.01-7.14,0.05-14.29,0.07-21.87
		c12.4,0.04,24.31,0.09,36.75,0.13c-0.02,4.62-0.03,9.1-0.05,14.06c-3.58-0.01-6.98-0.02-10.75-0.04c-0.26-2.28-0.52-4.51-0.84-7.23
		c-4.26-0.02-8.35-0.03-13.27-0.05C238.72,478.63,238.69,486.41,238.66,494.55z"/>
	<path class="st2" d="M484.43,493.07c-2.92-0.01-6.18-0.02-10.54-0.04c0.05-13.91,0.1-27.63,0.15-41.92
		c2.54,0.01,5.9,0.02,10.54,0.04C484.53,464.93,484.49,478.66,484.43,493.07z"/>
	<path class="st2" d="M511.55,493.04c-3.61-0.01-6.79-0.02-10.37-0.04c0.04-10.33,0.07-20.33,0.11-30.71
		c3.53,0.01,6.7,0.02,10.37,0.04C511.63,472.37,511.59,482.38,511.55,493.04z"/>
	<path class="st2" d="M511.66,450.9c-0.14,5.44-0.14,5.44-9.5,4.76C501.02,450.23,501.02,450.23,511.66,450.9z"/>
</g>
</svg>
