<?xml version="1.0" encoding="UTF-8"?><svg id="Layer_1" xmlns="http://www.w3.org/2000/svg" width="400" height="400" viewBox="0 0 400 400"><defs><style>.cls-1{fill:#e9e0d1;stroke-width:0px;}</style></defs><path class="cls-1" d="M325.81,3.73c-30.33-7.36-64.85,10.78-83.59,29.55-21.22,21.26-33.61,54.79-39.3,73.72.08.27.14.55.14.88.12,7.98-3.29,14.37-5.18,21.87-2.18,8.66,4.63,13.81,9.69,19.78,3.81,4.49,5.36,8.91,4.57,14.83-.68,5.1-2.44,10-3.79,14.95-1.28,4.69-2.53,9.39-3.89,14.05,5.88,1.74,11.76,3.52,17.31,6.17,1.13.54,1.79,2.23,1.38,3.39-6.65,18.87-17.01,36.15-23.85,54.93,4.64.71,9.61.14,14.17,1.3,5.31,1.35,6.19,5.39,5.29,10.41-1.2,6.72-4.47,12.86-6.92,19.18-3.32,8.56-7.09,17.07-9.43,25.98,6.37.65,12.8.23,19.19.19,2.05-.01,3.28,1.92,2.89,3.8-3.61,17.28-11.02,33.35-16.19,50.16-2.14,6.97-3.68,13.99-4.94,21.16-.46,2.63-.89,5.29-1.46,7.92,11.93-10.94,55.97-51.52,86.72-82.44,63.96-64.31,95.95-96.47,105.18-128.58,20.48-71.22-11.97-169.6-68.01-183.19Z"/></svg>